<mxfile host="app.diagrams.net" modified="2020-10-19T11:24:52.440Z" agent="5.0 (Windows)" etag="U62rAQQx24sYixGvwo4q" version="13.8.0" type="github">
  <diagram id="tHyQBRfuijBE6Kjzy-yp" name="Page-1">
    <mxGraphModel dx="910" dy="487" grid="1" gridSize="10" guides="1" tooltips="1" connect="1" arrows="1" fold="1" page="1" pageScale="1" pageWidth="1169" pageHeight="827" math="0" shadow="0">
      <root>
        <mxCell id="0" />
        <mxCell id="1" parent="0" />
        <mxCell id="-Ks-MGX2oiENzWUd814f-5" value="POMAC RE-Engineered Process" style="swimlane;" vertex="1" parent="1">
          <mxGeometry x="10" y="10" width="1150" height="810" as="geometry" />
        </mxCell>
        <mxCell id="-Ks-MGX2oiENzWUd814f-6" value="Start" style="rounded=1;whiteSpace=wrap;html=1;" vertex="1" parent="-Ks-MGX2oiENzWUd814f-5">
          <mxGeometry x="90" y="50" width="90" height="50" as="geometry" />
        </mxCell>
        <mxCell id="-Ks-MGX2oiENzWUd814f-12" value="Petitioner/Applicant fills in the Petition form online and submits" style="rounded=0;whiteSpace=wrap;html=1;" vertex="1" parent="-Ks-MGX2oiENzWUd814f-5">
          <mxGeometry x="75" y="170" width="120" height="60" as="geometry" />
        </mxCell>
        <mxCell id="-Ks-MGX2oiENzWUd814f-11" value="" style="edgeStyle=orthogonalEdgeStyle;rounded=0;orthogonalLoop=1;jettySize=auto;html=1;entryX=0.5;entryY=0;entryDx=0;entryDy=0;" edge="1" parent="-Ks-MGX2oiENzWUd814f-5" source="-Ks-MGX2oiENzWUd814f-6" target="-Ks-MGX2oiENzWUd814f-12">
          <mxGeometry relative="1" as="geometry">
            <mxPoint x="135" y="175" as="targetPoint" />
          </mxGeometry>
        </mxCell>
      </root>
    </mxGraphModel>
  </diagram>
</mxfile>
